<svg xmlns="http://www.w3.org/2000/svg" xmlns:xlink="http://www.w3.org/1999/xlink" viewBox="0 0 776.34 432.29"><defs><style>.cls-1{fill:#fed4a2;}.cls-2{fill:#030203;}.cls-3{fill:#b50f0f;}.cls-4{fill:#fff;}.cls-5{fill:#f04d4a;stroke-width:0.5px;}.cls-11,.cls-12,.cls-13,.cls-14,.cls-5{stroke:#231f20;}.cls-11,.cls-12,.cls-13,.cls-14,.cls-5,.cls-7{stroke-miterlimit:10;}.cls-6{fill:#231f20;}.cls-12,.cls-7{fill:none;}.cls-7{stroke:#ed1c24;stroke-width:3px;}.cls-8{fill:#ed1c24;}.cls-9{fill:url(#linear-gradient);}.cls-10{fill:url(#linear-gradient-2);}.cls-11{fill:#d3d3d3;}.cls-13{fill:#2a1a00;}</style><linearGradient id="linear-gradient" x1="229.82" y1="127.93" x2="327.8" y2="127.93" gradientTransform="matrix(1, 0, 0, 0.94, -0.44, -0.95)" gradientUnits="userSpaceOnUse"><stop offset="0.03"/><stop offset="1" stop-color="#2a1a00"/></linearGradient><linearGradient id="linear-gradient-2" x1="311.82" y1="91.46" x2="357.77" y2="91.46" gradientTransform="matrix(0.85, 0.11, -0.12, 0.94, 57.02, -29.02)" xlink:href="#linear-gradient"/></defs><g id="Layer_3" data-name="Layer 3"><rect class="cls-1" x="294.44" y="181.23" width="13.5" height="25.59" rx="5.19"/><rect class="cls-2" x="284.68" y="286.89" width="19.52" height="94.69"/><rect class="cls-2" x="305.08" y="285.8" width="18" height="96.86"/><path class="cls-1" d="M216.44,219.18c-.44,1.64,23.45,5.67,44.93,6.6,22.15,1,46.81-1.17,46.57-2.85C307.49,219.75,217.3,216.06,216.44,219.18Z"/><path class="cls-3" d="M278.62,291c1.44-55.6,12.88-95,22.83-95.88,10.18-.89,24.31,38,27.8,97.4"/><path class="cls-1" d="M252.8,127.76c0,34,20.53,61.55,45.85,61.55,21.68,0,36.74-25,38-27.06a61,61,0,0,0,7.87-34.49C343,101.71,324.65,66.2,298.65,66.2,273.33,66.2,252.8,93.76,252.8,127.76Z"/><path class="cls-4" d="M318,119c-5.4,0-5.4,8.77,0,8.77S323.42,119,318,119Z"/><path class="cls-4" d="M281.86,123.72c-5.4,0-5.41,8.77,0,8.77S287.26,123.72,281.86,123.72Z"/><path class="cls-5" d="M294.59,169.16c-.12.93,5.48,3.56,11.11,2.45,4.18-.83,7.91-3.63,7.57-4.68-.4-1.24-6.5-.37-7.72-.2-2.1.29-2.15.52-6.7,1.42C295.3,168.85,294.63,168.85,294.59,169.16Z"/><path class="cls-6" d="M305.6,153.8c-1.67-.07-3.16.67-4.77.91a4,4,0,0,1-2.36-.3,2.22,2.22,0,0,1-1.12-1.94,34.73,34.73,0,0,1,.13-5.49,49,49,0,0,1,.82-5.9c.13-.62-.82-.93-.95-.3a51,51,0,0,0-.89,6.4c-.08,1.09-.13,2.18-.14,3.28a12.25,12.25,0,0,0,.15,2.84,3.45,3.45,0,0,0,3.62,2.46c1.88,0,3.59-1,5.47-1A.5.5,0,0,0,305.6,153.8Z"/><path d="M319.12,122a2.59,2.59,0,1,0,0,5.16A2.59,2.59,0,1,0,319.12,122Z"/><circle class="cls-7" cx="318.01" cy="121.07" r="13.65"/><circle class="cls-7" cx="281.86" cy="123.72" r="13.65"/><path d="M283.06,126.36a2.59,2.59,0,1,0,0,5.16A2.59,2.59,0,1,0,283.06,126.36Z"/><path class="cls-6" d="M289.09,103.52a22,22,0,0,0-19.21,5.66,20.53,20.53,0,0,0-3.66,4.64.5.5,0,0,0,.87.51,21,21,0,0,1,16.19-10.15,19.52,19.52,0,0,1,5.55.3C289.45,104.61,289.72,103.64,289.09,103.52Z"/><path class="cls-6" d="M328.47,101.24a21.12,21.12,0,0,0-21.08,3.45c-.49.42.22,1.12.71.71a20.14,20.14,0,0,1,20.1-3.2C328.8,102.44,329.06,101.48,328.47,101.24Z"/><path class="cls-8" d="M305.6,119.24a10.6,10.6,0,0,0-6-.07c-1.59.56-3.46,1.94-3.14,3.85.1.63,1.07.36,1-.27s.51-1.44,1.06-1.87a5.26,5.26,0,0,1,1.91-.91,10.42,10.42,0,0,1,5,.23C306,120.35,306.23,119.39,305.6,119.24Z"/><path class="cls-9" d="M292.12,185.9c-3-1.39-25.68-12.17-30.55-35.69A46,46,0,0,1,264.1,124c2.93-4.55,6.29-9.38,10.11-14.34,0,0,6.17-8,12.94-15.12,15.61-16.44,36.37-29.35,40.62-31.95-4.57-3.17-20-13-39.72-10.51a54.16,54.16,0,0,0-22.5,8.49c-2.14,1.33-37.61,24-36,61C230.84,151.85,256.42,179.19,292.12,185.9Z"/><path class="cls-10" d="M314.29,69.55c1.5-5.13,10.39-8,17.09-6,7.47,2.14,10.86,9.8,13.2,15.33,8.29,19.52,3.79,43.56-.24,44.09-2.79.37-2.55-10.84-12.06-26.72C322.45,79.79,312.52,75.6,314.29,69.55Z"/><polyline class="cls-11" points="160.69 236.21 331.12 166 335.46 173.03 163.02 243.54"/><circle class="cls-12" cx="196.89" cy="224.8" r="2.71"/><path class="cls-11" d="M239.28,211.76c.19,1.34-.79,2.77-1.38,2.73a.78.78,0,0,1-.57-.53c-.08-.24,0-.38.07-.82a4.37,4.37,0,0,0,0-.83c-.12-.68-.56-.8-1-1.57s-.53-1.6-.24-1.8.72.18,1.09.44C238.21,210,239.11,210.66,239.28,211.76Z"/><circle class="cls-12" cx="214.81" cy="217.2" r="2.71"/><circle class="cls-12" cx="205.98" cy="220.78" r="2.71"/><circle class="cls-12" cx="265.74" cy="195.73" r="1.75"/><circle class="cls-12" cx="251.74" cy="201.41" r="2.71"/><circle class="cls-12" cx="244.09" cy="206.83" r="2.71"/><ellipse class="cls-12" cx="310.09" cy="176.55" rx="6.56" ry="2.42" transform="translate(-41.62 116.34) rotate(-19.94)"/><circle class="cls-12" cx="258.81" cy="198.36" r="2.14"/><circle class="cls-12" cx="223.88" cy="213.37" r="2.71"/><circle class="cls-12" cx="231.32" cy="210.22" r="2.71"/><ellipse class="cls-12" cx="183.82" cy="232.29" rx="3.22" ry="2.35"/><path class="cls-11" d="M185.23,225.89a2.53,2.53,0,0,1-2.06,2.73,1.11,1.11,0,0,1-.86-.53c-.11-.23.07-.38.1-.81a2.5,2.5,0,0,0,0-.84c-.17-.68-.84-.8-1.45-1.57s-.8-1.6-.36-1.8,1.08.18,1.64.44C183.63,224.16,185,224.79,185.23,225.89Z"/><ellipse class="cls-12" cx="174.15" cy="232.29" rx="3.22" ry="2.35"/><ellipse class="cls-12" cx="166.73" cy="234.64" rx="3.22" ry="2.35"/><line class="cls-12" x1="189.2" y1="224.8" x2="192.47" y2="232.29"/><line class="cls-12" x1="276.39" y1="187.54" x2="278.62" y2="195.07"/><line class="cls-12" x1="280.22" y1="185.93" x2="281.86" y2="191.54"/><ellipse class="cls-13" cx="309.8" cy="175.75" rx="1.27" ry="0.72" transform="translate(-41.36 116.19) rotate(-19.94)"/><path class="cls-1" d="M251.13,205.54c-.43,2,12.63,7.32,24.65,8.82,12.4,1.54,26.55-.65,26.6-2.71C302.46,207.76,252,201.74,251.13,205.54Z"/><rect class="cls-14" x="303.75" y="184.92" width="113.9" height="66.15" transform="translate(-33.45 68.77) rotate(-10.41)"/><rect x="355.41" y="224.8" width="10.58" height="151.42"/><rect class="cls-14" x="335.47" y="374.52" width="52.71" height="7.06"/></g></svg>