<?xml version="1.0" encoding="utf-8"?>
<!-- Generator: Adobe Illustrator 24.2.0, SVG Export Plug-In . SVG Version: 6.00 Build 0)  -->
<svg version="1.1" xmlns="http://www.w3.org/2000/svg" xmlns:xlink="http://www.w3.org/1999/xlink" x="0px" y="0px"
	 viewBox="0 0 776.3 432.3" style="enable-background:new 0 0 776.3 432.3;" xml:space="preserve">
<style type="text/css">
	.st0{fill:#FED4A2;}
	.st1{fill:#030203;}
	.st2{fill:#B50F0F;}
	.st3{fill:#FFFFFF;}
	.st4{fill:#F04D4A;stroke:#231F20;stroke-width:0.5;stroke-miterlimit:10;}
	.st5{fill:#231F20;}
	.st6{fill:none;stroke:#ED1C24;stroke-width:3;stroke-miterlimit:10;}
	.st7{fill:#ED1C24;}
	.st8{fill:url(#SVGID_1_);}
	.st9{fill:url(#SVGID_2_);}
	.st10{fill:#D3D3D3;stroke:#231F20;stroke-miterlimit:10;}
	.st11{fill:none;stroke:#231F20;stroke-miterlimit:10;}
	.st12{fill:#2A1A00;stroke:#231F20;stroke-miterlimit:10;}
	.st13{stroke:#231F20;stroke-miterlimit:10;}
	.st14{display:none;}
	.st15{display:inline;fill:#231F20;}
	.st16{display:inline;fill:#030203;}
	.st17{display:inline;fill:#FED4A2;}
	.st18{display:inline;fill:#B50F0F;}
	.st19{display:inline;fill:#F04D4A;stroke:#231F20;stroke-width:0.5;stroke-miterlimit:10;}
	.st20{fill:#D28D3C;}
	.st21{display:inline;fill:none;stroke:#ED1C24;stroke-width:3;stroke-miterlimit:10;}
	.st22{display:inline;fill:#FCC79D;}
	.st23{display:inline;fill:url(#SVGID_3_);}
	.st24{display:inline;fill:url(#SVGID_4_);}
	.st25{display:inline;fill:#160E0B;}
	.st26{display:inline;fill:url(#SVGID_5_);stroke:#DCDDDE;stroke-miterlimit:10;}
	.st27{display:inline;fill:none;stroke:#231F20;stroke-width:0.5;stroke-miterlimit:10;}
	.st28{display:inline;fill:#ED1C24;}
	.st29{display:inline;fill:#FFFFFF;}
	.st30{display:inline;}
</style>
<g id="Layer_2">
	<path style="fill:none;" d="M-269,657.5l-261.5,20.2c-11.4,0.9-21.2-7.1-22.1-17.9l-14.6-189.6c-0.8-10.7,7.7-20.2,19.1-21
		l261.5-20.2c11.4-0.9,21.2,7.1,22.1,17.9l14.6,189.6C-249.1,647.2-257.6,656.6-269,657.5z"/>
	
		<text transform="matrix(0.888 -0.4599 0.4599 0.888 -411.6233 668.4888)" style="display:none;fill:#30004F; font-family:'SnellRoundhand-Black'; font-size:149px;">M </text>
	<path style="fill:none;" d="M-149.5,671.1L-411,691.2c-11.4,0.9-21.2-7.1-22.1-17.9l-14.6-189.6c-0.8-10.7,7.7-20.2,19.1-21
		l261.5-20.2c11.4-0.9,21.2,7.1,22.1,17.9l14.6,189.6C-129.6,660.8-138.2,670.2-149.5,671.1z"/>
	
		<text transform="matrix(0.888 -0.4599 0.4599 0.888 -292.1765 682.0938)" style="display:none;fill:#30004F; font-family:'SnellRoundhand-Black'; font-size:149px;">K </text>
</g>
<g id="Layer_3">
	<path class="st0" d="M302.7,206.8h-3.1c-2.9,0-5.2-2.3-5.2-5.2v-15.2c0-2.9,2.3-5.2,5.2-5.2h3.1c2.9,0,5.2,2.3,5.2,5.2v15.2
		C307.9,204.5,305.6,206.8,302.7,206.8z"/>
	<rect x="284.7" y="286.9" class="st1" width="19.5" height="94.7"/>
	<rect x="305.1" y="285.8" class="st1" width="18" height="96.9"/>
	<path class="st0" d="M216.4,219.2c-0.4,1.6,23.4,5.7,44.9,6.6c22.2,1,46.8-1.2,46.6-2.8C307.5,219.7,217.3,216.1,216.4,219.2z"/>
	<path class="st2" d="M278.6,291c1.4-55.6,12.9-95,22.8-95.9c10.2-0.9,24.3,38,27.8,97.4"/>
	<path class="st0" d="M252.8,127.8c0,34,20.5,61.6,45.8,61.6c21.7,0,36.7-25,38-27.1c8.8-15.1,8.1-29.8,7.9-34.5
		c-1.5-26-19.8-61.6-45.8-61.6C273.3,66.2,252.8,93.8,252.8,127.8z"/>
	<path class="st3" d="M318,119c-5.4,0-5.4,8.8,0,8.8C323.4,127.8,323.4,119,318,119z"/>
	<path class="st3" d="M281.9,123.7c-5.4,0-5.4,8.8,0,8.8C287.3,132.5,287.3,123.7,281.9,123.7z"/>
	<path class="st4" d="M294.6,169.2c-0.1,0.9,5.5,3.6,11.1,2.4c4.2-0.8,7.9-3.6,7.6-4.7c-0.4-1.2-6.5-0.4-7.7-0.2
		c-2.1,0.3-2.2,0.5-6.7,1.4C295.3,168.9,294.6,168.9,294.6,169.2z"/>
	<path class="st5" d="M305.6,153.8c-1.7-0.1-3.2,0.7-4.8,0.9c-0.8,0.1-1.7,0.1-2.4-0.3c-0.8-0.4-1-1.1-1.1-1.9
		c-0.1-1.8,0-3.7,0.1-5.5c0.2-2,0.4-4,0.8-5.9c0.1-0.6-0.8-0.9-1-0.3c-0.4,2.1-0.7,4.2-0.9,6.4c-0.1,1.1-0.1,2.2-0.1,3.3
		c0,0.9-0.1,1.9,0.1,2.8c0.4,1.7,2,2.5,3.6,2.5c1.9,0,3.6-1,5.5-1C306.2,154.8,306.2,153.8,305.6,153.8z"/>
	<path d="M319.1,122c-3.8,0-3.8,5.2,0,5.2C322.9,127.1,322.9,122,319.1,122z"/>
	<circle class="st6" cx="318" cy="121.1" r="13.6"/>
	<circle class="st6" cx="281.9" cy="123.7" r="13.6"/>
	<path d="M283.1,126.4c-3.8,0-3.8,5.2,0,5.2C286.9,131.5,286.9,126.4,283.1,126.4z"/>
	<path class="st5" d="M289.1,103.5c-6.8-1.4-14.2,0.9-19.2,5.7c-1.4,1.4-2.7,2.9-3.7,4.6c-0.3,0.6,0.5,1.1,0.9,0.5
		c3.3-5.8,9.6-9.6,16.2-10.2c1.9-0.2,3.7-0.1,5.5,0.3C289.5,104.6,289.7,103.6,289.1,103.5z"/>
	<path class="st5" d="M328.5,101.2c-7-2.8-15.3-1.4-21.1,3.5c-0.5,0.4,0.2,1.1,0.7,0.7c5.5-4.6,13.5-5.8,20.1-3.2
		C328.8,102.4,329.1,101.5,328.5,101.2z"/>
	<path class="st7" d="M305.6,119.2c-2-0.5-4.1-0.8-6-0.1c-1.6,0.6-3.5,1.9-3.1,3.8c0.1,0.6,1.1,0.4,1-0.3c-0.1-0.8,0.5-1.4,1.1-1.9
		c0.6-0.4,1.2-0.7,1.9-0.9c1.6-0.4,3.3-0.2,5,0.2C306,120.4,306.2,119.4,305.6,119.2z"/>
	
		<linearGradient id="SVGID_1_" gradientUnits="userSpaceOnUse" x1="229.8185" y1="127.9313" x2="327.7965" y2="127.9313" gradientTransform="matrix(1.0017 -2.274330e-03 -2.274330e-03 0.941 -0.4437 -0.9515)">
		<stop  offset="3.222140e-02" style="stop-color:#000000"/>
		<stop  offset="1" style="stop-color:#2A1A00"/>
	</linearGradient>
	<path class="st8" d="M292.1,185.9c-3-1.4-25.7-12.2-30.5-35.7c-2.4-11.6,0.6-21.3,2.5-26.3c2.9-4.5,6.3-9.4,10.1-14.3
		c0,0,6.2-8,12.9-15.1c15.6-16.4,36.4-29.3,40.6-32c-4.6-3.2-20-13-39.7-10.5c-10.8,1.4-18.2,5.9-22.5,8.5c-2.1,1.3-37.6,24-36,61
		C230.8,151.9,256.4,179.2,292.1,185.9z"/>
	
		<linearGradient id="SVGID_2_" gradientUnits="userSpaceOnUse" x1="311.8166" y1="91.4646" x2="357.7711" y2="91.4646" gradientTransform="matrix(0.8509 0.1052 -0.1164 0.9418 57.0177 -29.0225)">
		<stop  offset="3.222140e-02" style="stop-color:#000000"/>
		<stop  offset="1" style="stop-color:#2A1A00"/>
	</linearGradient>
	<path class="st9" d="M314.3,69.6c1.5-5.1,10.4-8,17.1-6c7.5,2.1,10.9,9.8,13.2,15.3c8.3,19.5,3.8,43.6-0.2,44.1
		c-2.8,0.4-2.5-10.8-12.1-26.7C322.5,79.8,312.5,75.6,314.3,69.6z"/>
	<polyline class="st10" points="160.7,236.2 331.1,166 335.5,173 163,243.5 	"/>
	<circle class="st11" cx="196.9" cy="224.8" r="2.7"/>
	<path class="st10" d="M239.3,211.8c0.2,1.3-0.8,2.8-1.4,2.7c-0.2,0-0.5-0.3-0.6-0.5c-0.1-0.2,0-0.4,0.1-0.8c0-0.4,0-0.7,0-0.8
		c-0.1-0.7-0.6-0.8-1-1.6c-0.4-0.7-0.5-1.6-0.2-1.8c0.2-0.2,0.7,0.2,1.1,0.4C238.2,210,239.1,210.7,239.3,211.8z"/>
	<circle class="st11" cx="214.8" cy="217.2" r="2.7"/>
	<circle class="st11" cx="206" cy="220.8" r="2.7"/>
	<circle class="st11" cx="265.7" cy="195.7" r="1.7"/>
	<circle class="st11" cx="251.7" cy="201.4" r="2.7"/>
	<circle class="st11" cx="244.1" cy="206.8" r="2.7"/>
	
		<ellipse transform="matrix(0.9401 -0.341 0.341 0.9401 -41.6217 116.3357)" class="st11" cx="310.1" cy="176.6" rx="6.6" ry="2.4"/>
	<path class="st11" d="M247.8,210.7"/>
	<path class="st11" d="M250.4,207.4"/>
	<circle class="st11" cx="258.8" cy="198.4" r="2.1"/>
	<circle class="st11" cx="223.9" cy="213.4" r="2.7"/>
	<circle class="st11" cx="231.3" cy="210.2" r="2.7"/>
	<ellipse class="st11" cx="183.8" cy="232.3" rx="3.2" ry="2.4"/>
	<path class="st10" d="M185.2,225.9c0.3,1.3-1.2,2.8-2.1,2.7c-0.4,0-0.7-0.3-0.9-0.5c-0.1-0.2,0.1-0.4,0.1-0.8c0-0.4,0-0.7,0-0.8
		c-0.2-0.7-0.8-0.8-1.5-1.6c-0.5-0.7-0.8-1.6-0.4-1.8c0.4-0.2,1.1,0.2,1.6,0.4C183.6,224.2,185,224.8,185.2,225.9z"/>
	<ellipse class="st11" cx="174.2" cy="232.3" rx="3.2" ry="2.4"/>
	<ellipse class="st11" cx="166.7" cy="234.6" rx="3.2" ry="2.4"/>
	<line class="st11" x1="189.2" y1="224.8" x2="192.5" y2="232.3"/>
	<line class="st11" x1="276.4" y1="187.5" x2="278.6" y2="195.1"/>
	<line class="st11" x1="280.2" y1="185.9" x2="281.9" y2="191.5"/>
	
		<ellipse transform="matrix(0.9401 -0.341 0.341 0.9401 -41.3642 116.1876)" class="st12" cx="309.8" cy="175.7" rx="1.3" ry="0.7"/>
	<path class="st0" d="M251.1,205.5c-0.4,2,12.6,7.3,24.6,8.8c12.4,1.5,26.5-0.7,26.6-2.7C302.5,207.8,252,201.7,251.1,205.5z"/>
	
		<rect x="303.8" y="184.9" transform="matrix(0.9835 -0.1807 0.1807 0.9835 -33.4548 68.7685)" class="st13" width="113.9" height="66.2"/>
	<rect x="355.4" y="224.8" width="10.6" height="151.4"/>
	<rect x="335.5" y="374.5" class="st13" width="52.7" height="7.1"/>
</g>
<g id="Layer_1" class="st14">
	<path class="st15" d="M706,88.3"/>
	<rect x="643" y="282.9" class="st16" width="19.5" height="94.7"/>
	<rect x="664.9" y="280.7" class="st16" width="18" height="96.9"/>
	<path class="st17" d="M661.4,201.6h-3.1c-2.9,0-5.2-2.3-5.2-5.2v-15.2c0-2.9,2.3-5.2,5.2-5.2h3.1c2.9,0,5.2,2.3,5.2,5.2v15.2
		C666.6,199.2,664.3,201.6,661.4,201.6z"/>
	<path class="st17" d="M580.7,231.9c0.5,2.3,23.5-1.3,42.9-8.2c20-7.1,40.5-19.1,39.4-21.3C660.9,198.5,579.8,227.5,580.7,231.9z"/>
	<path class="st18" d="M637.2,289c1.4-55.6,12.9-95,22.8-95.9c10.2-0.9,24.3,38,27.8,97.4"/>
	<path class="st17" d="M599.5,126.1c0,35.5,19.7,64.3,44.1,64.3c20.9,0,35.3-26.1,36.5-28.3c8.5-15.7,7.8-31.2,7.6-36
		c-1.5-27.2-19.1-64.3-44.1-64.3C619.2,61.7,599.5,90.5,599.5,126.1z"/>
	<path class="st19" d="M632.1,167c-0.4,1.8,9.8,10.6,19.9,6.8c8.3-3.1,15.1-14.3,14.5-17.4c0-0.1,0-0.1-0.1-0.2
		c-1.2-1.6-8.6,6.6-17.1,9.9C639.5,170,632.5,165.5,632.1,167z"/>
	<rect x="558.9" y="350.8" class="st20" width="11.2" height="67.9"/>
	<rect x="428.1" y="297.5" class="st20" width="11.2" height="69.1"/>
	<circle class="st21" cx="623.6" cy="127.3" r="13.6"/>
	<circle class="st21" cx="660.5" cy="116.3" r="13.6"/>
	<path class="st15" d="M652.6,149.6c-1.6,0.4-2.8,1.6-4.3,2.3c-0.7,0.3-1.6,0.6-2.3,0.4c-0.8-0.1-1.3-0.8-1.7-1.5
		c-0.7-1.7-1.1-3.5-1.6-5.3c-0.5-1.9-0.8-3.9-1-5.9c-0.1-0.6-1.1-0.6-1,0c0.2,2.1,0.6,4.3,1.1,6.4c0.3,1.1,0.5,2.1,0.9,3.2
		c0.3,0.9,0.5,1.9,1,2.7c0.9,1.5,2.6,1.7,4.2,1.2c1.8-0.6,3.1-2.1,4.9-2.6C653.5,150.4,653.2,149.4,652.6,149.6z"/>
	<ellipse class="st22" cx="690.7" cy="120.8" rx="7.8" ry="11.4"/>
	<linearGradient id="SVGID_3_" gradientUnits="userSpaceOnUse" x1="568.8459" y1="113.2267" x2="666.8239" y2="113.2267">
		<stop  offset="3.222140e-02" style="stop-color:#000000"/>
		<stop  offset="1" style="stop-color:#2A1A00"/>
	</linearGradient>
	<path class="st23" d="M631.5,184.6c-3-1.5-25.7-13-30.6-38c-2.4-12.4,0.5-22.7,2.5-27.9c2.9-4.8,6.3-9.9,10.1-15.2
		c0,0,6.1-8.5,12.9-16c15.5-17.4,36.2-31.1,40.5-33.9c-4.6-3.4-20-13.9-39.7-11.3c-10.8,1.4-18.2,6.2-22.4,9
		c-2.1,1.4-37.5,25.4-35.8,64.8C570.3,148.2,595.9,177.4,631.5,184.6z"/>
	<path class="st17" d="M574.5,241.9c0,1.5,10.2,3.6,19.1,3c9.2-0.6,19.1-4.3,18.9-5.8C612,236.2,574.5,239,574.5,241.9z"/>
	<linearGradient id="SVGID_4_" gradientUnits="userSpaceOnUse" x1="644.7339" y1="83.3678" x2="690.6884" y2="83.3678">
		<stop  offset="3.222140e-02" style="stop-color:#000000"/>
		<stop  offset="1" style="stop-color:#2A1A00"/>
	</linearGradient>
	<path class="st24" d="M644.8,61.7c1-5.6,10.9-9.7,18.9-8.5c9,1.3,14,8.9,17.5,14.3c12.4,19.3,10.6,45.1,6,46.1
		c-3.2,0.7-4.5-11-17.8-26.4C655.7,71.4,643.6,68.3,644.8,61.7z"/>
	<path class="st15" d="M646.9,240.1"/>
	
		<rect x="437.2" y="242.6" transform="matrix(0.8947 0.4467 -0.4467 0.8947 184.2714 -199.4727)" class="st20" width="156" height="96.9"/>
	<path class="st17" d="M607.1,240.9c1,2.1,17.6-2.8,30.3-10.4c13.2-7.9,25.4-20.5,24-22.4C658.7,204.5,605.1,236.8,607.1,240.9z"/>
	<path class="st15" d="M726.7,123.7L726.7,123.7z"/>
	<path class="st15" d="M667.4,91.6c-6.8-1.4-14.2,0.9-19.2,5.7c-1.4,1.4-2.7,2.9-3.7,4.6c-0.3,0.6,0.5,1.1,0.9,0.5
		c3.3-5.8,9.6-9.6,16.2-10.2c1.9-0.2,3.7-0.1,5.5,0.3C667.7,92.7,668,91.7,667.4,91.6z"/>
	<path class="st15" d="M626.6,107.4c-7-2.8-15.3-1.4-21.1,3.5c-0.5,0.4,0.2,1.1,0.7,0.7c5.5-4.6,13.5-5.8,20.1-3.2
		C626.9,108.6,627.1,107.6,626.6,107.4z"/>
	<rect x="520.8" y="232.6" class="st25" width="81.5" height="8.8"/>
	
		<linearGradient id="SVGID_5_" gradientUnits="userSpaceOnUse" x1="535.1224" y1="212.5522" x2="596.7484" y2="212.5522" gradientTransform="matrix(1.2521 8.125791e-02 0.2245 1.1039 -202.1162 -75.2952)">
		<stop  offset="0" style="stop-color:#FFFFFF"/>
		<stop  offset="1" style="stop-color:#000000"/>
	</linearGradient>
	<path class="st26" d="M585.9,174.1L546.2,242c-0.5,0.8-1.7,1-2.8,0.3L522,229.8c-1.1-0.6-1.6-1.8-1.1-2.6l34.9-59.7"/>
	<path class="st27" d="M698.8,182.6"/>
	<path class="st27" d="M733.7,180.3"/>
	<path class="st27" d="M705.8,196.2"/>
	<path class="st27" d="M708.9,215.5"/>
	<path class="st28" d="M646.5,119.2c-2-0.5-4.1-0.8-6-0.1c-1.6,0.6-3.5,1.9-3.1,3.8c0.1,0.6,1.1,0.4,1-0.3c-0.1-0.8,0.5-1.4,1.1-1.9
		c0.6-0.4,1.2-0.7,1.9-0.9c1.6-0.4,3.3-0.2,5,0.2C646.9,120.3,647.2,119.3,646.5,119.2z"/>
	<path class="st29" d="M620.8,122.3c-5.4,0-5.4,8.8,0,8.8C626.2,131.1,626.2,122.3,620.8,122.3z"/>
	<path class="st29" d="M657.4,114.3c-5.5,0-5.5,8.8,0,8.8C662.9,123.1,662.9,114.3,657.4,114.3z"/>
	<path class="st30" d="M619.5,125.4c-3.8,0-3.8,5.2,0,5.2C623.3,130.5,623.3,125.4,619.5,125.4z"/>
	<path class="st15" d="M656.5,117.5c-3.8,0-3.8,5.2,0,5.2C660.3,122.7,660.3,117.5,656.5,117.5z"/>
</g>
</svg>
