<?xml version="1.0" encoding="utf-8"?>
<!-- Generator: Adobe Illustrator 24.2.0, SVG Export Plug-In . SVG Version: 6.00 Build 0)  -->
<svg version="1.1" id="Layer_1" xmlns="http://www.w3.org/2000/svg" xmlns:xlink="http://www.w3.org/1999/xlink" x="0px" y="0px"
	 viewBox="0 0 1440 900" style="enable-background:new 0 0 1440 900;" xml:space="preserve">
<style type="text/css">
	.st0{fill:url(#SVGID_1_);}
	.st1{fill:url(#SVGID_2_);}
</style>
<linearGradient id="SVGID_1_" gradientUnits="userSpaceOnUse" x1="477.4" y1="169.9318" x2="1440" y2="169.9318" gradientTransform="matrix(1 0 0 1 0 110)">
	<stop  offset="0" style="stop-color:#FFFFFF"/>
	<stop  offset="0.1149" style="stop-color:#EAF3FB"/>
	<stop  offset="0.3179" style="stop-color:#A9D2EE"/>
	<stop  offset="0.3914" style="stop-color:#80C2E7"/>
	<stop  offset="0.4649" style="stop-color:#47ACDE"/>
	<stop  offset="0.5674" style="stop-color:#1E9CD7"/>
	<stop  offset="0.8652" style="stop-color:#0075BE"/>
	<stop  offset="0.9944" style="stop-color:#005B97"/>
</linearGradient>
<path class="st0" d="M1440,493.9c-52.2-61.1-106-89.8-140.9-104.2c-173.2-72-377.2-2.4-521.7-71.9c-48-23-51.1-43-51.4-48.8
	c-1.7-28.8,44.1-40.8,56.3-84.2c0,0,8.6-30.3-6.5-59.8c-26.1-50.7-148.5-75.1-298.4-47.2"/>
<linearGradient id="SVGID_2_" gradientUnits="userSpaceOnUse" x1="1572.63" y1="224.9435" x2="2522.8486" y2="224.9435" gradientTransform="matrix(-0.9999 -1.030000e-02 1.030000e-02 -0.9999 2518.0242 889.1235)">
	<stop  offset="0" style="stop-color:#FFFFFF"/>
	<stop  offset="8.250000e-02" style="stop-color:#F9F6FA"/>
	<stop  offset="0.2197" style="stop-color:#E7DCEC"/>
	<stop  offset="0.3936" style="stop-color:#CBB3D5"/>
	<stop  offset="0.5674" style="stop-color:#AA83BB"/>
	<stop  offset="0.8652" style="stop-color:#2F2266"/>
	<stop  offset="0.9944" style="stop-color:#252064"/>
</linearGradient>
<path class="st1" d="M0,419.3c50.9,63.1,103.7,93,137.9,108.1c170.2,75.5,372.3,6.2,514.2,78.9c47,24.1,50,44.5,50.3,50.6
	c1.4,29.4-44.1,41.3-56.6,85.7c0,0-8.8,31,5.8,61.2c25.1,52.2,145.8,78.4,294.1,51.2"/>
</svg>
