<?xml version="1.0" encoding="utf-8"?>
<!-- Generator: Adobe Illustrator 24.2.0, SVG Export Plug-In . SVG Version: 6.00 Build 0)  -->
<svg version="1.1" xmlns="http://www.w3.org/2000/svg" xmlns:xlink="http://www.w3.org/1999/xlink" x="0px" y="0px"
	 viewBox="0 0 281.3 432.3" style="enable-background:new 0 0 281.3 432.3;" xml:space="preserve">
<style type="text/css">
	.st0{fill:none;}
	.st1{fill:#231F20;}
	.st2{fill:#030203;}
	.st3{fill:#FED4A2;}
	.st4{fill:#B50F0F;}
	.st5{fill:#F04D4A;stroke:#231F20;stroke-width:0.5;stroke-miterlimit:10;}
	.st6{display:none;fill:#D28D3C;}
	.st7{fill:none;stroke:#ED1C24;stroke-width:3;stroke-miterlimit:10;}
	.st8{fill:#FCC79D;}
	.st9{fill:url(#SVGID_1_);}
	.st10{fill:url(#SVGID_2_);}
	.st11{fill:#160E0B;}
	.st12{fill:url(#SVGID_3_);stroke:#DCDDDE;stroke-miterlimit:10;}
	.st13{fill:none;stroke:#231F20;stroke-width:0.5;stroke-miterlimit:10;}
	.st14{fill:#ED1C24;}
	.st15{fill:#FFFFFF;}
</style>
<g id="Layer_2">
	<line class="st0" x1="-154.9" y1="139.2" x2="-119.7" y2="85.3"/>
	<path class="st0" d="M-768.9,606.1l-261.5,20.2c-11.4,0.9-21.2-7.1-22.1-17.9l-14.6-189.6c-0.8-10.7,7.7-20.2,19.1-21l261.5-20.2
		c11.4-0.9,21.2,7.1,22.1,17.9l14.6,189.6C-749,595.8-757.5,605.2-768.9,606.1z"/>
	
		<text transform="matrix(0.888 -0.4599 0.4599 0.888 -911.5043 617.0541)" style="display:none;fill:#30004F; font-family:'SnellRoundhand-Black'; font-size:149px;">M </text>
	<path class="st0" d="M-649.4,619.7l-261.5,20.2c-11.4,0.9-21.2-7.1-22.1-17.9l-14.6-189.6c-0.8-10.7,7.7-20.2,19.1-21l261.5-20.2
		c11.4-0.9,21.2,7.1,22.1,17.9l14.6,189.6C-629.5,609.4-638.1,618.8-649.4,619.7z"/>
	
		<text transform="matrix(0.888 -0.4599 0.4599 0.888 -792.0576 630.6591)" style="display:none;fill:#30004F; font-family:'SnellRoundhand-Black'; font-size:149px;">K </text>
</g>
<g id="Layer_1">
	<path class="st1" d="M210.9,88.3"/>
	<rect x="147.9" y="282.9" class="st2" width="19.5" height="94.7"/>
	<rect x="169.8" y="280.7" class="st2" width="18" height="96.9"/>
	<path class="st3" d="M166.4,201.6h-3.1c-2.9,0-5.2-2.3-5.2-5.2v-15.2c0-2.9,2.3-5.2,5.2-5.2h3.1c2.9,0,5.2,2.3,5.2,5.2v15.2
		C171.5,199.2,169.2,201.6,166.4,201.6z"/>
	<path class="st3" d="M85.7,231.9c0.5,2.3,23.5-1.3,42.9-8.2c20-7.1,40.5-19.1,39.4-21.3C165.9,198.5,84.8,227.5,85.7,231.9z"/>
	<path class="st4" d="M142.1,289c1.4-55.6,12.9-95,22.8-95.9c10.2-0.9,24.3,38,27.8,97.4"/>
	<path class="st3" d="M104.4,126.1c0,35.5,19.7,64.3,44.1,64.3c20.9,0,35.3-26.1,36.5-28.3c8.5-15.7,7.8-31.2,7.6-36
		c-1.5-27.2-19.1-64.3-44.1-64.3C124.2,61.7,104.4,90.5,104.4,126.1z"/>
	<path class="st5" d="M137.1,167c-0.4,1.8,9.8,10.6,19.9,6.8c8.3-3.1,15.1-14.3,14.5-17.4c0-0.1,0-0.1-0.1-0.2
		c-1.2-1.6-8.6,6.6-17.1,9.9C144.5,170,137.4,165.5,137.1,167z"/>
	<rect x="59" y="299.3" class="st6" width="11.2" height="67.9"/>
	<rect x="-71.8" y="246.1" class="st6" width="11.2" height="69.1"/>
	<circle class="st7" cx="128.5" cy="127.3" r="13.6"/>
	<circle class="st7" cx="165.5" cy="116.3" r="13.6"/>
	<path class="st1" d="M157.5,149.6c-1.6,0.4-2.8,1.6-4.3,2.3c-0.7,0.3-1.6,0.6-2.3,0.4c-0.8-0.1-1.3-0.8-1.7-1.5
		c-0.7-1.7-1.1-3.5-1.6-5.3c-0.5-1.9-0.8-3.9-1-5.9c-0.1-0.6-1.1-0.6-1,0c0.2,2.1,0.6,4.3,1.1,6.4c0.3,1.1,0.5,2.1,0.9,3.2
		c0.3,0.9,0.5,1.9,1,2.7c0.9,1.5,2.6,1.7,4.2,1.2c1.8-0.6,3.1-2.1,4.9-2.6C158.4,150.4,158.2,149.4,157.5,149.6z"/>
	<ellipse class="st8" cx="195.6" cy="120.8" rx="7.8" ry="11.4"/>
	<linearGradient id="SVGID_1_" gradientUnits="userSpaceOnUse" x1="73.7869" y1="113.2267" x2="171.7649" y2="113.2267">
		<stop  offset="3.222140e-02" style="stop-color:#000000"/>
		<stop  offset="1" style="stop-color:#2A1A00"/>
	</linearGradient>
	<path class="st9" d="M136.5,184.6c-3-1.5-25.7-13-30.6-38c-2.4-12.4,0.5-22.7,2.5-27.9c2.9-4.8,6.3-9.9,10.1-15.2
		c0,0,6.1-8.5,12.9-16c15.5-17.4,36.2-31.1,40.5-33.9c-4.6-3.4-20-13.9-39.7-11.3c-10.8,1.4-18.2,6.2-22.4,9
		c-2.1,1.4-37.5,25.4-35.8,64.8C75.2,148.2,100.8,177.4,136.5,184.6z"/>
	<path class="st3" d="M79.4,241.9c0,1.5,10.2,3.6,19.1,3c9.2-0.6,19.1-4.3,18.9-5.8C116.9,236.2,79.4,239,79.4,241.9z"/>
	<linearGradient id="SVGID_2_" gradientUnits="userSpaceOnUse" x1="149.6749" y1="83.3678" x2="195.6294" y2="83.3678">
		<stop  offset="3.222140e-02" style="stop-color:#000000"/>
		<stop  offset="1" style="stop-color:#2A1A00"/>
	</linearGradient>
	<path class="st10" d="M149.8,61.7c1-5.6,10.9-9.7,18.9-8.5c9,1.3,14,8.9,17.5,14.3c12.4,19.3,10.6,45.1,6,46.1
		c-3.2,0.7-4.5-11-17.8-26.4C160.7,71.4,148.6,68.3,149.8,61.7z"/>
	<path class="st1" d="M151.8,240.1"/>
	
		<rect x="-62.7" y="191.2" transform="matrix(0.8947 0.4467 -0.4467 0.8947 108.663 18.3867)" class="st6" width="156" height="96.9"/>
	<path class="st3" d="M112,240.9c1,2.1,17.6-2.8,30.3-10.4c13.2-7.9,25.4-20.5,24-22.4C163.6,204.5,110.1,236.8,112,240.9z"/>
	<path class="st1" d="M231.7,123.7L231.7,123.7z"/>
	<path class="st1" d="M172.3,91.6c-6.8-1.4-14.2,0.9-19.2,5.7c-1.4,1.4-2.7,2.9-3.7,4.6c-0.3,0.6,0.5,1.1,0.9,0.5
		c3.3-5.8,9.6-9.6,16.2-10.2c1.9-0.2,3.7-0.1,5.5,0.3C172.7,92.7,172.9,91.7,172.3,91.6z"/>
	<path class="st1" d="M131.5,107.4c-7-2.8-15.3-1.4-21.1,3.5c-0.5,0.4,0.2,1.1,0.7,0.7c5.5-4.6,13.5-5.8,20.1-3.2
		C131.8,108.6,132.1,107.6,131.5,107.4z"/>
	<rect x="25.7" y="232.6" class="st11" width="81.5" height="8.8"/>
	
		<linearGradient id="SVGID_3_" gradientUnits="userSpaceOnUse" x1="30.6794" y1="208.0476" x2="92.3054" y2="208.0476" gradientTransform="matrix(1.2521 8.125791e-02 0.2245 1.1039 -64.5411 -29.3326)">
		<stop  offset="0" style="stop-color:#FFFFFF"/>
		<stop  offset="1" style="stop-color:#000000"/>
	</linearGradient>
	<path class="st12" d="M90.9,174.1L51.2,242c-0.5,0.8-1.7,1-2.8,0.3L27,229.8c-1.1-0.6-1.6-1.8-1.1-2.6l34.9-59.7"/>
	<path class="st13" d="M203.8,182.6"/>
	<path class="st13" d="M238.7,180.3"/>
	<path class="st13" d="M210.8,196.2"/>
	<path class="st13" d="M213.9,215.5"/>
	<path class="st14" d="M151.5,119.2c-2-0.5-4.1-0.8-6-0.1c-1.6,0.6-3.5,1.9-3.1,3.8c0.1,0.6,1.1,0.4,1-0.3c-0.1-0.8,0.5-1.4,1.1-1.9
		c0.6-0.4,1.2-0.7,1.9-0.9c1.6-0.4,3.3-0.2,5,0.2C151.8,120.3,152.1,119.3,151.5,119.2z"/>
	<path class="st15" d="M125.7,122.3c-5.4,0-5.4,8.8,0,8.8C131.1,131.1,131.1,122.3,125.7,122.3z"/>
	<path class="st15" d="M162.3,114.3c-5.5,0-5.5,8.8,0,8.8C167.8,123.1,167.8,114.3,162.3,114.3z"/>
	<path d="M124.5,125.4c-3.8,0-3.8,5.2,0,5.2C128.3,130.5,128.3,125.4,124.5,125.4z"/>
	<path class="st1" d="M161.5,117.5c-3.8,0-3.8,5.2,0,5.2C165.3,122.7,165.3,117.5,161.5,117.5z"/>
</g>
</svg>
