<?xml version="1.0" encoding="utf-8"?>
<!-- Generator: Adobe Illustrator 24.2.0, SVG Export Plug-In . SVG Version: 6.00 Build 0)  -->
<svg version="1.1" id="Layer_1" xmlns="http://www.w3.org/2000/svg" xmlns:xlink="http://www.w3.org/1999/xlink" x="0px" y="0px"
	 viewBox="0 0 1440 900" style="enable-background:new 0 0 1440 900;" xml:space="preserve">
<style type="text/css">
	.st0{fill:url(#SVGID_1_);}
	.st1{fill:url(#SVGID_2_);}
</style>
<linearGradient id="SVGID_1_" gradientUnits="userSpaceOnUse" x1="477.414" y1="616.5302" x2="1478.5907" y2="616.5302" gradientTransform="matrix(1 0 0 -1 0 902)">
	<stop  offset="0" style="stop-color:#FFFFFF"/>
	<stop  offset="0.1149" style="stop-color:#EAF3FB"/>
	<stop  offset="0.3179" style="stop-color:#A9D2EE"/>
	<stop  offset="0.3914" style="stop-color:#80C2E7"/>
	<stop  offset="0.4649" style="stop-color:#47ACDE"/>
	<stop  offset="0.5674" style="stop-color:#1E9CD7"/>
	<stop  offset="0.8652" style="stop-color:#0075BE"/>
	<stop  offset="0.9944" style="stop-color:#005B97"/>
</linearGradient>
<path class="st0" d="M1478.6,504.9c-54.3-62.7-110.3-92.1-146.5-106.9c-180.1-73.9-392.3-2.5-542.6-73.8
	c-49.9-23.6-53.1-44.1-53.5-50.1c-1.8-29.5,45.9-41.9,58.6-86.4c0,0,8.9-31.1-6.8-61.3c-27.1-52-154.5-77-310.4-48.4"/>
<linearGradient id="SVGID_2_" gradientUnits="userSpaceOnUse" x1="759.9153" y1="618.2842" x2="1726.01" y2="618.2842" gradientTransform="matrix(-0.9999 -1.030000e-02 -1.030000e-02 0.9999 1698.7793 -15.0561)">
	<stop  offset="0" style="stop-color:#FFFFFF"/>
	<stop  offset="8.250000e-02" style="stop-color:#F9F6FA"/>
	<stop  offset="0.2197" style="stop-color:#E7DCEC"/>
	<stop  offset="0.3936" style="stop-color:#CBB3D5"/>
	<stop  offset="0.5674" style="stop-color:#AA83BB"/>
	<stop  offset="0.8652" style="stop-color:#2F2266"/>
	<stop  offset="0.9944" style="stop-color:#252064"/>
</linearGradient>
<path class="st1" d="M-31.1,357c51.7,65.8,105.4,96.9,140.2,112.7c173,78.7,378.5,6.5,522.8,82.2c47.8,25.1,50.8,46.4,51.1,52.7
	c1.4,30.7-44.8,43.1-57.5,89.3c0,0-8.9,32.3,5.9,63.8c25.5,54.4,148.2,81.7,299,53.4"/>
</svg>
