<svg xmlns="http://www.w3.org/2000/svg" xmlns:xlink="http://www.w3.org/1999/xlink" viewBox="0 0 281.28 432.29"><defs><style>.cls-1{fill:#030203;}.cls-2{fill:#fed4a2;}.cls-3{fill:#b50f0f;}.cls-4{fill:#f04d4a;stroke:#231f20;stroke-width:0.5px;}.cls-11,.cls-4,.cls-5{stroke-miterlimit:10;}.cls-5{fill:none;stroke:#ed1c24;stroke-width:3px;}.cls-6{fill:#231f20;}.cls-7{fill:#fcc79d;}.cls-8{fill:url(#linear-gradient);}.cls-9{fill:url(#linear-gradient-2);}.cls-10{fill:#160e0b;}.cls-11{stroke:#dcddde;fill:url(#linear-gradient-3);}.cls-12{fill:#ed1c24;}.cls-13{fill:#fff;}</style><linearGradient id="linear-gradient" x1="73.79" y1="113.23" x2="171.76" y2="113.23" gradientUnits="userSpaceOnUse"><stop offset="0.03"/><stop offset="1" stop-color="#2a1a00"/></linearGradient><linearGradient id="linear-gradient-2" x1="149.67" y1="83.37" x2="195.63" y2="83.37" xlink:href="#linear-gradient"/><linearGradient id="linear-gradient-3" x1="30.68" y1="208.05" x2="92.31" y2="208.05" gradientTransform="matrix(1.25, 0.08, 0.22, 1.1, -64.54, -29.33)" gradientUnits="userSpaceOnUse"><stop offset="0" stop-color="#fff"/><stop offset="1"/></linearGradient></defs><g id="Layer_1" data-name="Layer 1"><rect class="cls-1" x="147.93" y="282.86" width="19.52" height="94.69"/><rect class="cls-1" x="169.83" y="280.69" width="18" height="96.86"/><rect class="cls-2" x="158.05" y="175.96" width="13.5" height="25.59" rx="5.19"/><path class="cls-2" d="M85.66,231.91c.46,2.33,23.55-1.32,42.89-8.16,19.95-7.05,40.48-19.13,39.39-21.26C165.89,198.46,84.78,227.46,85.66,231.91Z"/><path class="cls-3" d="M142.14,289c1.43-55.6,12.87-95,22.83-95.88,10.17-.89,24.3,38,27.8,97.4"/><path class="cls-2" d="M104.45,126.08c0,35.54,19.74,64.34,44.09,64.34,20.86,0,35.35-26.09,36.53-28.29,8.48-15.75,7.83-31.18,7.57-36-1.48-27.22-19.08-64.34-44.1-64.34C124.19,61.74,104.45,90.55,104.45,126.08Z"/><path class="cls-4" d="M137.07,167c-.39,1.83,9.79,10.63,19.89,6.81,8.31-3.15,15.12-14.28,14.49-17.43a.38.38,0,0,0-.08-.17c-1.24-1.57-8.63,6.61-17.06,9.94C144.48,170,137.39,165.52,137.07,167Z"/><circle class="cls-5" cx="128.5" cy="127.33" r="13.65"/><circle class="cls-5" cx="165.49" cy="116.32" r="13.65"/><path class="cls-6" d="M157.54,149.59c-1.61.45-2.8,1.61-4.27,2.32a3.9,3.9,0,0,1-2.34.44,2.2,2.2,0,0,1-1.65-1.51,35.65,35.65,0,0,1-1.55-5.26,49,49,0,0,1-1-5.87c-.07-.64-1.07-.64-1,0a50.63,50.63,0,0,0,1.1,6.36c.25,1.07.54,2.12.87,3.17a11.84,11.84,0,0,0,1,2.66,3.44,3.44,0,0,0,4.2,1.24c1.79-.58,3.1-2.08,4.91-2.58A.5.5,0,0,0,157.54,149.59Z"/><ellipse class="cls-7" cx="195.63" cy="120.84" rx="7.84" ry="11.37"/><path class="cls-8" d="M136.48,184.58c-3-1.49-25.67-13-30.58-38a51.72,51.72,0,0,1,2.46-27.91c2.91-4.83,6.25-10,10.06-15.21,0,0,6.14-8.48,12.88-16,15.54-17.44,36.23-31.1,40.46-33.86-4.56-3.38-19.95-13.9-39.66-11.27a52.14,52.14,0,0,0-22.45,9c-2.13,1.41-37.49,25.44-35.8,64.79C75.22,148.25,100.82,177.36,136.48,184.58Z"/><path class="cls-2" d="M79.4,241.89c0,1.54,10.19,3.62,19.12,3,9.2-.63,19.13-4.29,18.87-5.82C116.9,236.17,79.45,239,79.4,241.89Z"/><path class="cls-9" d="M149.76,61.74c1-5.56,10.89-9.67,18.91-8.53,9,1.28,14,8.85,17.48,14.33,12.38,19.35,10.61,45.07,6,46.14-3.17.75-4.5-11-17.78-26.39C160.67,71.39,148.57,68.29,149.76,61.74Z"/><path class="cls-2" d="M112,240.92c1,2.14,17.55-2.79,30.34-10.43,13.2-7.88,25.41-20.47,24-22.37C163.62,204.51,110.07,236.85,112,240.92Z"/><path class="cls-6" d="M172.29,91.61a22,22,0,0,0-19.21,5.67,20.81,20.81,0,0,0-3.66,4.64.5.5,0,0,0,.87.51,20.93,20.93,0,0,1,16.19-10.15,19.52,19.52,0,0,1,5.55.3C172.65,92.71,172.92,91.74,172.29,91.61Z"/><path class="cls-6" d="M131.5,107.41a21.12,21.12,0,0,0-21.08,3.45c-.5.42.21,1.12.7.71a20.13,20.13,0,0,1,20.11-3.19C131.83,108.62,132.09,107.65,131.5,107.41Z"/><rect class="cls-10" x="25.7" y="232.61" width="81.53" height="8.81"/><path class="cls-11" d="M90.88,174.12,51.19,242a2.06,2.06,0,0,1-2.81.34L27,229.79a2.05,2.05,0,0,1-1.08-2.62l35-59.73"/><path class="cls-12" d="M151.47,119.18a10.63,10.63,0,0,0-6-.07c-1.59.56-3.46,1.93-3.14,3.84.1.64,1.07.37,1-.26a2.19,2.19,0,0,1,1.06-1.87,5.23,5.23,0,0,1,1.92-.91,10.38,10.38,0,0,1,4.95.23C151.82,120.29,152.09,119.33,151.47,119.18Z"/><path class="cls-13" d="M125.7,122.28c-5.4,0-5.41,8.77,0,8.77S131.1,122.28,125.7,122.28Z"/><path class="cls-13" d="M162.3,114.31c-5.52,0-5.53,8.78,0,8.78S167.84,114.31,162.3,114.31Z"/><path d="M124.49,125.38a2.59,2.59,0,1,0,0,5.16A2.59,2.59,0,1,0,124.49,125.38Z"/><path class="cls-6" d="M161.49,117.53a2.59,2.59,0,1,0,0,5.16A2.59,2.59,0,1,0,161.49,117.53Z"/></g></svg>